<svg width="450" height="511" viewBox="0 0 450 511" fill="none" xmlns="http://www.w3.org/2000/svg">
<path d="M64.8221 510.627C64.0921 508.877 62.2721 509.287 60.9921 508.937C35.3121 501.957 18.9621 480.847 18.9321 454.037C18.8621 382.707 18.6821 311.377 19.0821 240.047C19.1721 224.577 17.3621 209.777 12.5621 195.097C8.24215 181.877 4.01214 168.527 1.19214 154.927C-4.80786 126.077 12.3421 98.9974 41.3421 90.5574C120.432 67.5474 199.562 44.6474 278.682 21.7474C302.082 14.9774 325.342 7.60745 348.982 1.78745C379.302 -5.68255 406.862 10.8174 416.022 40.8874C421.522 58.9674 426.642 77.1574 431.892 95.3074C434.792 105.317 432.512 109.477 422.582 112.357C367.342 128.367 312.102 144.367 256.862 160.357C206.872 174.827 156.872 189.267 106.892 203.767C105.242 204.247 103.342 204.357 101.682 206.087C103.762 206.087 105.372 206.087 106.982 206.087C216.212 206.087 325.452 206.087 434.682 206.097C436.842 206.097 439.032 206.047 441.152 206.367C445.322 207.007 448.052 209.477 448.972 213.637C449.392 215.567 449.572 217.577 449.572 219.557C449.602 297.377 449.652 375.187 449.562 453.007C449.532 480.977 432.542 502.867 406.502 509.277C404.692 509.727 402.492 508.777 401.042 510.637C357.472 510.637 313.912 510.637 270.342 510.637C269.912 508.977 268.172 508.717 267.152 507.667C262.052 502.437 263.992 493.917 270.862 491.397C273.112 490.567 275.442 490.677 277.762 490.677C315.172 490.677 352.582 490.677 389.992 490.677C414.982 490.677 429.612 476.077 429.622 451.077C429.642 409.007 429.552 366.937 429.732 324.877C429.752 320.387 428.712 319.117 424.062 319.127C319.982 319.277 215.902 319.237 111.812 319.237C88.8721 319.237 65.9221 319.257 42.9821 319.207C40.4121 319.197 38.7721 319.147 38.7821 322.717C38.9221 366.947 38.7921 411.177 38.9621 455.407C39.0021 466.627 43.7221 475.927 52.6021 482.997C59.6821 488.627 67.8621 490.697 76.7621 490.687C115.002 490.657 153.242 490.707 191.482 490.637C196.682 490.627 201.162 491.747 203.392 496.927C205.762 502.407 203.312 507.057 196.502 510.627C152.612 510.627 108.712 510.627 64.8221 510.627ZM299.282 36.5574C299.562 37.2274 299.602 37.5974 299.812 37.7974C323.032 60.1574 346.292 82.4675 369.422 104.907C371.242 106.677 372.662 105.957 374.302 105.477C385.282 102.317 396.212 98.9674 407.242 95.9874C410.162 95.1974 410.892 94.2775 410.012 91.3175C405.522 76.2375 401.442 61.0274 396.792 45.9974C392.472 32.0074 382.952 23.3474 368.492 20.3174C360.152 18.5674 352.432 21.1474 344.612 23.4574C329.552 27.9074 314.432 32.1974 299.282 36.5574ZM123.742 178.077C99.7221 154.987 76.3421 132.537 52.9921 110.057C51.9921 109.097 51.2021 108.417 49.5821 108.797C27.2021 113.977 17.1321 134.127 20.7221 150.537C23.8121 164.647 28.5821 178.277 32.3721 192.187C33.3721 195.847 33.6221 201.047 36.0721 202.607C38.9821 204.457 43.4821 201.307 47.2421 200.227C72.5721 192.977 97.8621 185.587 123.742 178.077ZM341.852 299.267C370.612 299.267 398.512 299.237 426.412 299.317C429.162 299.327 429.682 298.297 429.672 295.817C429.592 273.727 429.602 251.627 429.672 229.537C429.682 227.127 429.252 225.957 426.452 225.977C413.162 226.107 399.872 226.057 386.592 226.007C384.942 225.997 383.862 226.447 382.982 227.977C369.452 251.517 355.862 275.007 341.852 299.267ZM125.612 226.297C125.002 226.217 124.392 226.057 123.782 226.057C96.5621 226.047 69.3321 226.107 42.1121 225.967C38.8921 225.947 38.8221 227.377 38.8321 229.807C38.9021 251.717 38.9421 273.637 38.7921 295.547C38.7721 298.707 39.6821 299.367 42.6721 299.327C55.1221 299.157 67.5721 299.107 80.0221 299.357C83.3621 299.427 85.0021 298.217 86.5521 295.487C98.9521 273.777 111.492 252.137 123.952 230.457C124.662 229.237 125.892 228.177 125.612 226.297ZM348.062 113.087C348.092 111.427 347.072 110.967 346.392 110.307C323.862 88.6574 301.272 67.0574 278.822 45.3174C276.922 43.4774 275.362 43.3974 273.112 44.0674C259.132 48.2174 245.122 52.2674 231.132 56.3674C228.842 57.0374 226.342 57.2374 224.252 58.8374C224.722 59.4174 225.002 59.8374 225.342 60.1674C248.232 82.1774 271.162 104.127 293.952 126.237C295.992 128.217 297.682 127.727 299.742 127.127C315.812 122.467 331.882 117.797 348.062 113.087ZM273.372 134.687C273.052 134.007 273.022 133.817 272.912 133.717C249.682 111.347 226.432 88.9974 203.242 66.5975C202.022 65.4275 200.992 65.0274 199.322 65.5174C182.692 70.3774 166.042 75.1675 149.402 79.9675C149.552 80.6575 149.502 81.0775 149.692 81.2575C172.902 103.637 196.142 125.997 219.322 148.417C220.652 149.707 221.892 149.687 223.372 149.257C239.902 144.447 256.422 139.627 273.372 134.687ZM199.332 156.137C197.352 154.517 196.002 153.547 194.812 152.407C177.192 135.517 159.602 118.597 141.992 101.697C136.842 96.7574 132.322 89.1275 126.322 87.6775C120.142 86.1875 112.492 90.6774 105.512 92.6674C95.0021 95.6774 84.5221 98.7975 73.0421 102.167C75.0721 103.897 76.3821 104.907 77.5721 106.047C96.5021 124.207 116.002 141.837 134.072 160.817C142.542 169.707 149.922 172.077 161.342 167.517C173.232 162.777 185.922 160.047 199.332 156.137ZM204.642 226.047C187.252 226.047 170.542 226.157 153.832 225.957C150.492 225.917 148.902 227.107 147.312 229.897C134.912 251.627 122.332 273.247 109.812 294.907C109.092 296.147 108.462 297.437 107.492 299.267C124.792 299.267 141.512 299.157 158.212 299.367C161.552 299.407 163.152 298.227 164.732 295.457C177.032 273.867 189.512 252.377 201.932 230.847C202.732 229.447 203.512 228.047 204.642 226.047ZM282.042 226.277C281.482 226.207 280.872 226.057 280.262 226.057C263.812 226.047 247.362 226.147 230.922 225.957C227.962 225.927 226.912 227.437 225.712 229.517C213.062 251.497 200.362 273.437 187.722 295.427C187.122 296.477 185.852 297.437 186.642 299.267C203.792 299.267 221.042 299.207 238.292 299.327C240.952 299.347 241.552 297.597 242.532 295.907C255.302 273.807 268.082 251.707 280.832 229.597C281.382 228.647 282.392 227.827 282.042 226.277ZM264.102 298.767C264.922 299.007 265.342 299.237 265.772 299.237C282.552 299.257 299.332 299.177 316.102 299.347C318.942 299.377 319.732 297.697 320.802 295.837C333.472 273.877 346.172 251.937 358.802 229.957C359.412 228.897 360.672 227.937 359.932 226.057C342.642 226.057 325.232 226.087 307.832 226.017C305.362 226.007 304.962 227.867 304.092 229.367C291.632 250.877 279.182 272.387 266.742 293.907C265.862 295.447 265.052 297.017 264.102 298.767Z" fill="#FFD764"/>
<path d="M230.432 510.628C230.192 509.528 229.192 509.168 228.432 508.568C224.562 505.538 223.442 501.608 225.052 497.058C226.522 492.918 231.192 490.148 235.352 490.868C240.102 491.688 243.212 494.478 243.872 499.338C244.532 504.168 242.342 507.648 237.942 509.698C237.382 509.958 236.622 509.838 236.412 510.638C234.422 510.628 232.432 510.628 230.432 510.628Z" fill="#FFD764"/>
<path d="M195.542 404.007C195.542 387.877 195.512 371.757 195.552 355.627C195.582 344.817 203.132 340.497 212.602 345.937C240.492 361.967 268.362 378.037 296.202 394.157C305.592 399.587 305.582 408.347 296.202 413.777C268.362 429.897 240.492 445.967 212.602 462.007C202.882 467.597 195.562 463.227 195.542 451.887C195.522 435.927 195.542 419.967 195.542 404.007ZM215.742 370.787C215.742 393.167 215.742 414.837 215.742 437.167C235.002 426.057 253.792 415.207 273.252 403.987C253.722 392.717 234.982 381.897 215.742 370.787Z" fill="#FFD764"/>
</svg>
