<svg width="423" height="465" viewBox="0 0 423 465" fill="none" xmlns="http://www.w3.org/2000/svg">
<g clip-path="url(#clip0_460_140)">
<path d="M211.667 464.257C177.723 463.772 145.491 457.024 116.735 437.866C105.527 430.402 95.9417 421.213 88.8103 409.724C86.9827 406.784 84.8101 405.915 81.6022 405.493C60.4253 402.695 39.3505 399.333 19.0938 392.202C13.9689 390.4 9.02289 388.227 4.3453 385.403C-0.408973 382.527 -0.894624 379.102 1.12466 374.028C14.5951 340.34 27.6182 306.484 39.2611 272.118C46.2775 251.389 53.7412 230.723 57.0257 208.996C58.8405 196.983 58.8149 184.688 60.1313 172.585C64.1699 135.152 72.7838 99.1497 94.5103 67.4928C115.47 36.9607 144.903 19.0299 180.432 10.3905C184.1 9.49583 187.321 8.30726 190.452 5.95569C201.584 -2.40263 221.866 -1.82752 232.742 6.77363C234.212 7.93664 235.541 8.94628 237.522 9.38081C301.82 23.6308 337.898 65.7547 353.963 127.573C359.983 150.718 362.782 174.336 363.855 198.159C364.75 217.917 371.076 236.372 377.019 254.865C389.723 294.394 404.548 333.183 419.922 371.753C423.641 381.083 423.054 382.923 413.801 387.371C395.359 396.241 375.434 399.806 355.51 403.282C349.976 404.241 344.391 404.944 338.819 405.647C336.863 405.89 335.291 406.388 334.154 408.203C315.712 437.419 287.352 451.464 255.172 459.35C240.947 462.851 226.39 464.398 211.667 464.257ZM74.7775 173.62C76.8479 172.841 77.6787 170.809 79.0206 169.326C87.7368 159.703 97.9354 152.38 110.498 148.597C130.691 142.513 149.696 146.641 168.227 155.217C175.946 158.795 183.039 163.486 190.708 168.304C190.708 119.458 190.669 71.4803 190.784 23.4903C190.797 19.7584 189.059 20.1929 186.682 20.7297C145.9 29.9827 114.754 52.0926 95.0854 89.475C85.6025 107.508 79.6468 126.73 75.7872 146.654C75.5827 147.715 73.5506 148.929 75.6594 149.785C77.2058 150.411 77.7809 148.801 78.4199 147.625C81.2827 142.347 84.5161 137.312 88.2991 132.647C110.281 105.565 146.961 101.297 173.263 122.768C174.847 124.058 176.304 125.554 177.672 127.087C178.681 128.212 178.566 129.503 177.429 130.589C176.381 131.586 175.192 132.021 173.927 130.998C172.905 130.18 171.959 129.273 170.988 128.404C151.076 110.831 120.799 110.422 101.003 127.841C87.2256 139.957 79.2762 155.702 74.4197 173.16C74.2791 173.557 74.1385 173.953 73.9979 174.349C74.7264 174.617 74.752 174.132 74.7775 173.62ZM347.228 173.62C347.241 174.119 347.369 174.758 347.969 174.323C348.455 173.966 348.097 173.442 347.548 173.199C343.202 157.019 335.866 142.411 323.891 130.538C303.673 110.486 271.863 109.847 250.571 128.787C248.896 130.282 247.197 133.363 244.628 130.589C241.829 127.56 245.254 125.809 247.005 124.327C261.37 112.096 278.023 107.112 296.631 110.128C318.217 113.63 331.968 127.663 342.538 145.644C343.394 147.101 343.407 149.389 345.822 149.683C346.602 147.753 346.231 145.887 345.771 144.098C343.65 135.765 341.809 127.33 339.189 119.151C322.869 68.0807 290.56 33.6378 237.087 21.1642C232.448 20.0779 231.145 20.4869 231.17 25.6118C231.362 71.1991 231.285 116.774 231.285 162.361C231.285 164.137 231.285 165.914 231.285 168.457C242.417 160.93 253.216 154.744 265.102 150.616C295.672 140.021 323.393 146.897 343.713 170.195C344.787 171.409 345.439 173.122 347.228 173.62ZM209.725 452.819C227.911 452.589 244.449 450.71 260.552 445.994C284.426 439.003 306.51 428.294 320.517 407.027C327.125 396.995 334.831 394.26 345.503 392.943C365.747 390.438 385.761 386.515 404.893 378.936C408.816 377.377 409.251 375.818 407.717 372.047C402.119 358.385 396.701 344.646 391.601 330.78C377.837 293.41 363.127 256.309 354.845 217.214C352.161 204.536 346.781 193.571 339.381 183.397C325.936 164.879 308.056 155.357 284.732 157.862C271.645 159.268 258.648 162.936 248.832 171.179C234.327 183.397 218.3 185.225 200.83 183.781C199.334 183.653 197.814 183.627 196.331 183.794C192.919 184.164 190.324 182.848 187.679 180.726C176.649 171.87 164.546 164.815 150.948 160.674C126.985 153.364 105.565 157.274 88.3886 176.343C78.1771 187.679 70.5473 200.459 67.5055 216C62.5212 241.561 53.6517 266.073 45.0506 290.599C35.3887 318.115 25.0877 345.4 14.0967 372.418C12.6908 375.869 12.742 377.799 16.7678 378.923C20.7169 380.022 24.4487 381.863 28.3723 383.077C47.0443 388.854 66.2531 392.023 85.6025 394.26C91.0341 394.886 94.7532 396.662 97.5904 401.8C103.572 412.65 112.518 421.022 122.704 427.923C149.427 446.02 179.55 452.065 209.725 452.819ZM225.56 93.7947C225.56 71.0969 225.56 48.4119 225.56 25.714C225.56 14.0201 223.323 11.6813 211.373 11.6301C208.229 11.6174 205.034 12.2053 201.954 12.9082C198.159 13.7645 196.216 15.7454 196.28 20.3463C196.574 42.0984 196.408 63.8505 196.408 85.6153C196.408 112.991 196.484 140.379 196.318 167.754C196.293 171.448 197.29 172.572 200.983 172.406C207.527 172.112 214.121 172.074 220.665 172.419C224.601 172.624 225.675 171.486 225.649 167.499C225.47 142.935 225.56 118.371 225.56 93.7947Z" fill="#FFD764"/>
<path d="M74.7776 173.62C74.7649 174.131 74.7265 174.617 73.998 174.361C74.1386 173.965 74.2792 173.569 74.4198 173.16C74.522 173.326 74.6498 173.48 74.7776 173.62Z" fill="#FCFCFC"/>
<path d="M347.548 173.198C348.084 173.441 348.455 173.965 347.969 174.323C347.369 174.757 347.241 174.118 347.228 173.62L347.548 173.198Z" fill="#FCFCFC"/>
<path d="M321.731 277.115C319.06 271.632 316.721 266.75 314.306 261.907C312.517 258.315 312.875 255.338 316.658 253.42C320.351 251.555 322.869 253.433 324.466 256.564C328.876 265.229 333.055 274.022 337.451 282.687C339.036 285.819 337.822 288.502 336.71 291.276C327.955 313.143 319.214 334.997 310.408 356.839C309.386 359.382 309.143 361.273 310.894 363.932C315.124 370.399 313.092 378.552 306.881 382.706C300.375 387.064 292.912 386.016 287.966 379.613C286.355 377.53 284.809 376.917 282.381 376.917C234.749 376.968 187.104 376.968 139.471 376.904C136.992 376.904 135.497 377.683 133.899 379.664C128.774 386.016 120.697 386.987 114.384 382.412C108.633 378.246 106.882 370.181 111.086 363.881C112.876 361.184 112.518 359.28 111.508 356.788C102.792 335.112 94.2419 313.36 85.3469 291.761C83.5193 287.327 83.6854 283.723 85.9348 279.582C89.8711 272.361 93.3985 264.923 97.0025 257.523C98.7662 253.893 101.118 251.427 105.348 253.523C109.514 255.58 109.22 258.954 107.38 262.584C105.029 267.236 102.754 271.939 99.9547 277.601C109.681 275.467 118.537 273.537 127.394 271.581C145.849 267.504 164.278 263.325 182.771 259.402C185.659 258.788 187.18 257.523 188.65 255.044C199.424 236.717 222.518 236.819 233.381 255.171C234.57 257.178 235.618 258.686 238.212 259.248C265.281 265.114 292.311 271.134 319.341 277.102C319.891 277.217 320.453 277.115 321.731 277.115ZM286.547 365.159C286.036 364.06 285.895 363.536 285.589 363.139C267.313 339.368 248.986 315.609 230.761 291.787C229.202 289.742 227.489 289.154 225.048 289.18C216.23 289.295 207.399 289.474 198.606 289.116C194.529 288.95 192.165 290.471 189.8 293.563C172.534 316.223 155.089 338.767 137.746 361.376C136.954 362.411 135.279 363.242 136.136 365.146C186.068 365.159 235.963 365.159 286.547 365.159ZM182.349 277.115C181.186 276.118 186.362 270.431 179.384 271.952C153.44 277.626 127.56 283.531 101.578 289.039C97.4242 289.921 97.6287 291.237 98.9195 294.42C106.779 313.807 114.435 333.285 122.282 352.685C122.921 354.27 122.78 356.839 125.132 357.107C127.381 357.363 127.995 354.998 129.081 353.605C145.58 332.262 161.965 310.842 178.554 289.576C181.314 285.997 183.461 282.534 182.349 277.115ZM241.394 271.645C240.206 271.505 238.851 271.39 239.043 272.629C239.784 277.166 237.905 282.176 241.024 286.253C258.571 309.143 276.221 331.955 293.806 354.819C295.838 357.465 297.308 358.781 299.033 354.41C307.06 334.077 315.239 313.82 323.444 293.563C324.505 290.943 324.326 289.947 321.105 289.269C302.804 285.422 284.579 281.269 266.316 277.205C257.932 275.339 249.535 273.46 241.394 271.645ZM210.517 283.314C215.208 283.314 219.898 283.25 224.588 283.339C226.748 283.39 228.103 283.135 227.975 280.387C227.643 273.166 226.505 266.188 222.39 260.066C216.025 250.596 205.776 250.673 199.475 260.207C195.641 266.009 194.516 272.604 194.005 279.428C193.749 282.854 195.104 283.531 198.133 283.365C202.248 283.147 206.389 283.314 210.517 283.314ZM122.819 379.562C127.586 379.626 131.177 375.932 131.113 371.025C131.049 366.36 127.662 362.948 123.01 362.909C118.358 362.858 114.818 366.207 114.639 370.833C114.473 375.664 118.052 379.498 122.819 379.562ZM299.046 362.769C294.305 362.782 290.982 366.079 290.88 370.897C290.765 375.958 294.228 379.639 299.097 379.613C303.916 379.588 307.507 375.779 307.353 370.846C307.187 366.092 303.762 362.756 299.046 362.769Z" fill="#FFD764"/>
<path d="M210.964 386.463C230.263 386.463 249.561 386.515 268.859 386.412C272.514 386.4 275.786 386.936 277.154 390.694C278.674 394.86 275.441 396.7 272.617 398.643C254.111 411.347 235.566 424.012 217.163 436.856C213.086 439.706 209.776 439.936 205.507 436.971C186.937 424.038 168.163 411.385 149.44 398.669C146.564 396.713 143.612 394.694 144.865 390.63C146.092 386.617 149.504 386.425 153.082 386.438C172.368 386.502 191.666 386.463 210.964 386.463ZM252.948 398.132C224.448 398.132 197.609 398.132 169.262 398.132C183.589 407.896 196.791 416.881 209.98 425.891C211.399 426.862 212.357 426.018 213.457 425.264C226.199 416.484 238.953 407.73 252.948 398.132Z" fill="#FFD764"/>
<path d="M135.574 251.299C128.966 251.503 122.87 250.545 116.978 248.551C96.8492 241.752 88.0692 219.438 98.0506 200.625C113.042 172.381 159.779 167.486 180.215 192.024C189.749 203.475 190.759 214.134 183.167 227.157C175.218 240.819 162.297 247.017 147.498 250.11C143.459 250.954 139.369 251.58 135.574 251.299ZM135.689 239.988C138.206 239.694 142.002 239.592 145.619 238.761C158.476 235.835 169.748 230.569 175.014 217.214C177.314 211.373 176.534 206.197 172.624 200.983C155.115 177.582 118.358 188.599 108.556 205.341C102.728 215.297 104.914 233.598 121.208 237.943C125.579 239.094 129.963 239.886 135.689 239.988Z" fill="#FFD764"/>
<path d="M286.598 251.35C270.789 250.762 256.347 246.595 244.768 235.106C237.65 228.038 234.34 219.297 233.816 209.366C233.65 206.044 234.659 203.117 236.193 200.267C247.12 179.895 270.01 171.256 294.254 178.464C302.229 180.841 309.603 184.496 315.75 190.209C326.409 200.114 330.307 212.165 326.613 226.39C322.971 240.423 312.785 247.119 299.468 250.072C295.263 251.005 290.969 251.618 286.598 251.35ZM286.726 239.95C291.672 239.95 296.235 239.145 300.784 237.93C317.616 233.445 319.508 213.967 312.53 203.884C301.59 188.087 273.281 182.4 257.51 193.353C241.701 204.344 241.893 216.766 255.734 229.329C264.425 237.228 275.531 239.4 286.726 239.95Z" fill="#FFD764"/>
<path d="M210.607 196.51C214.338 196.51 218.07 196.472 221.802 196.523C223.681 196.548 225.189 197.43 225.214 199.449C225.227 201.52 223.604 202.325 221.777 202.338C214.313 202.389 206.849 202.376 199.385 202.274C197.532 202.248 196.126 201.328 196.305 199.13C196.459 197.238 197.839 196.612 199.411 196.561C203.143 196.459 206.875 196.523 210.607 196.523C210.607 196.535 210.607 196.523 210.607 196.51Z" fill="#FFD764"/>
<path d="M210.466 207.757C213.457 207.757 216.447 207.706 219.451 207.782C221.444 207.834 223.336 208.332 223.285 210.837C223.234 213.022 221.457 213.572 219.719 213.598C213.738 213.687 207.744 213.687 201.763 213.61C200.024 213.585 198.299 213.086 198.261 210.837C198.21 208.294 200.037 207.808 202.044 207.77C204.855 207.719 207.654 207.757 210.466 207.757Z" fill="#FFD764"/>
<path d="M210.849 219.067C213.099 219.067 215.348 219.003 217.597 219.093C219.259 219.156 220.537 220.077 220.677 221.776C220.818 223.527 219.629 224.678 217.955 224.716C213.099 224.831 208.229 224.805 203.373 224.678C201.993 224.639 200.945 223.745 200.868 222.147C200.779 220.256 201.967 219.297 203.565 219.169C205.98 218.965 208.434 219.118 210.862 219.118C210.849 219.093 210.849 219.08 210.849 219.067Z" fill="#FFD764"/>
<path d="M210.99 359.625C193.916 359.625 176.854 359.65 159.779 359.599C157.492 359.599 153.99 360.404 154.156 356.89C154.297 353.835 156.457 351.011 159.409 349.413C160.495 348.825 161.952 349.503 162.272 350.538C164.355 357.439 169.697 352.57 173.378 353.554C174.937 353.976 174.528 351.586 174.541 350.41C174.617 345.528 174.541 340.659 174.605 335.777C174.63 334.077 174.758 332.237 177.148 332.16C179.678 332.07 180.33 333.77 180.356 335.828C180.42 340.71 180.522 345.592 180.33 350.461C180.215 353.171 181.097 353.861 183.781 353.95C194.44 354.321 194.427 354.436 194.427 343.624C194.427 333.31 194.401 322.984 194.452 312.67C194.465 310.51 193.941 307.609 197.162 307.43C200.983 307.226 200.255 310.485 200.267 312.747C200.344 325.131 200.421 337.515 200.229 349.886C200.178 353.107 201.111 354.116 204.293 353.925C209.878 353.593 217.227 355.714 220.601 352.915C224.077 350.027 221.534 342.41 221.649 336.863C221.815 328.607 221.662 320.351 221.726 312.108C221.738 310.127 221.368 307.545 224.384 307.43C227.72 307.302 227.553 309.986 227.566 312.223C227.604 324.607 227.732 336.991 227.489 349.362C227.413 353.094 228.512 354.027 232.141 353.963C241.624 353.81 241.624 354.001 241.624 344.736C241.624 341.553 241.573 338.358 241.714 335.176C241.791 333.285 242.762 331.994 244.909 332.096C246.916 332.198 247.35 333.655 247.376 335.227C247.452 340.288 247.567 345.362 247.388 350.423C247.299 353.145 248.194 354.321 250.903 353.835C254.226 353.26 258.763 355.867 260.169 350.193C260.386 349.324 261.792 348.992 262.623 349.452C265.549 351.088 267.76 353.912 267.888 356.928C268.029 360.302 264.514 359.625 262.201 359.625C245.126 359.638 228.052 359.625 210.99 359.625Z" fill="#FFD764"/>
</g>
<defs>
<clipPath id="clip0_460_140">
<rect width="422.082" height="464.27" fill="white"/>
</clipPath>
</defs>
</svg>
