<svg width="514" height="220" viewBox="0 0 514 220" fill="none" xmlns="http://www.w3.org/2000/svg">
<g clip-path="url(#clip0_461_141)">
<path d="M435.13 178.9C426.62 166.13 411.97 157.88 413.3 140.61C413.96 132.86 416.71 126.07 422.49 120.79C428.76 115.06 436.21 112.18 444.81 112.2C466.39 112.26 487.98 112.25 509.56 112.12C512.29 112.1 512.83 112.96 512.78 115.49C512.58 125.58 512.51 135.68 512.61 145.77C512.64 148.44 511.84 149.06 509.27 149.04C494.8 148.91 480.33 148.94 465.85 148.99C462.31 147.79 462.06 151.38 464.05 153.23C481.12 170.36 496 188.57 475.15 210.08C460.65 225.97 390.6 215.53 365.07 218.64C348.14 218.22 337.42 203.22 326.44 192.61C325.7 192.26 325.17 191.25 324.2 191.69C322.67 198.96 323.98 207.86 323.58 215.68C323.61 217.86 323.22 218.68 320.77 218.65C308.67 218.48 296.57 218.48 284.47 218.54C282.49 218.55 281.97 217.97 281.96 216.02C281.89 182.5 281.78 148.98 281.58 115.46C281.57 113.22 282.35 112.83 284.34 112.84C309.41 115.11 353.86 106.58 373.45 120.45C393.53 134.3 395.5 161.61 374.32 175.31C373.28 176 372 176.54 372.75 178.4C373.53 180.34 374.63 179.12 375.73 179.13C395.63 179.32 415.21 180.21 435.13 178.9ZM408.5 212.46C424.33 212.46 440.16 212.56 455.99 212.37C459.16 212.33 462.41 211.26 465.17 209.57C493.48 190.22 472.08 172.4 457.21 153.5C454.56 150.24 455.94 146.9 457.08 143.91C457.89 141.78 460.68 142.96 462.56 142.94C476.03 142.85 489.5 142.81 502.97 142.96C505.66 142.99 506.3 142.23 506.21 139.65C506.02 133.55 506.04 127.44 506.2 121.34C506.26 118.98 505.7 118.19 503.17 118.2C483.34 118.31 463.51 118.26 443.68 118.26C439.57 118.26 435.29 119.2 432.09 121.18C408.37 136.79 423.45 158.55 439.27 173.46C445.62 179.41 440.34 186.02 433.3 185.6C415.71 185.52 398.12 185.28 380.54 185.7C375.37 187.17 354.69 178.8 364.35 173.72C375.88 168.78 386.42 155.39 382.28 142.37C378.3 129.65 367.21 119.72 352 119.56C331.67 119.34 311.34 119.53 291.01 119.46C288.9 119.45 288.29 120.03 288.29 122.16C288.36 151.31 288.37 180.46 288.28 209.62C288.27 212 288.98 212.52 291.23 212.48C328.35 211.99 315.19 218.23 317.46 180.3C317.85 173.33 328.84 187.7 330.98 189.05C339.29 195.83 346.22 204.25 355.2 210.27C356.77 211.33 358.72 212.47 360.99 212.46C376.83 212.43 392.67 212.45 408.5 212.46Z" fill="#FFD764"/>
<path d="M244.14 36.13C230.42 36.01 216.71 36.1 202.99 35.9C200.28 35.86 200.75 37.46 200.75 39.02C200.75 60.2 200.68 81.38 200.83 102.56C200.85 105.65 200.13 106.47 196.99 106.41C185.64 106.19 174.29 106.23 162.94 106.4C160.17 106.44 159.43 105.81 159.44 102.96C159.57 81.78 159.46 60.6 159.57 39.42C159.58 36.74 159.09 35.84 156.17 35.88C142.33 36.08 128.48 35.99 114.64 36.04C111.4 35.1 111 37.78 112.91 39.79C119.41 46.74 124.89 54.53 130.39 62.2C141.78 77.81 128.62 101.43 110.58 105.15C75.0001 108.13 39.2301 105.46 3.52009 106.39C0.810088 106.4 -0.0499118 105.86 8.82277e-05 102.97C0.200088 92.38 0.210088 81.79 0.0200882 71.2C-0.0399118 68.18 0.600088 67.28 3.81009 67.3C30.4501 66.73 58.6901 68.78 84.5901 66.64C75.8401 54.82 58.0601 43.09 63.3401 25.9C65.9001 11.45 78.8301 0.42 93.7201 0C143.36 0.15 193.01 0.12 242.65 0.01C246.05 0 247.27 0.81 246.91 4.26C246.97 14.65 246.64 25.23 247 35.58C246.05 35.76 245.1 35.94 244.14 36.13ZM6.96009 77.22C6.97009 83.67 6.94009 90.13 6.98009 96.58C7.24009 98.03 5.37009 100.71 9.07009 100.17C40.9801 100.5 72.9301 100.35 104.85 100.12C108.68 100.08 112.64 98.69 116.5 96.34C124.23 91.63 126.73 84.63 127.99 76.72C132.66 62.58 85.8401 33.04 114.12 29.29C130.34 29.29 146.56 29.36 162.78 29.15C165.96 29.11 166.32 30.26 166.31 32.95C166.22 54.38 166.3 75.82 166.2 97.25C166.19 99.68 166.79 100.41 169.26 100.35C176.24 100.18 183.24 100.13 190.22 100.37C193.27 100.48 194.17 99.75 194.14 96.56C193.98 75.25 194.11 53.94 193.98 32.63C193.96 29.78 194.74 29.13 197.5 29.16C211.1 29.31 224.7 29.2 238.3 29.29C242.6 30.44 239.03 13.94 240.33 10.33C240.5 6.98 239.61 6.03 236.12 6.04C189.58 6.19 143.04 6.29 96.5001 6.1C84.0401 6.05 74.4201 12.47 70.6401 24.35C64.2201 40.1 80.6101 51.61 89.3501 62.55C94.6401 67.11 88.3101 74.95 82.4001 73.93C63.5601 73.92 44.7201 73.91 25.8801 73.94C19.7801 73.94 13.6701 74.12 7.57009 74.15C6.17009 74.12 7.34009 76.33 6.96009 77.22Z" fill="#FFD764"/>
<path d="M153.71 133.96C144.61 157.97 136.5 182.31 128.65 206.77C126.87 210.29 126.72 217.99 122.06 218.59C117.42 217.58 95.3101 220.97 95.7501 216.17C90.9001 202.7 86.6801 188.59 81.2201 175.56C76.0901 189.01 71.2301 202.13 66.6201 215.66C65.1301 221.4 46.8101 217.2 41.2201 218.48C36.8001 220.44 33.2801 200.51 30.7401 196.67C21.1101 169.42 13.0601 141.76 2.81014 114.73C1.96014 112.58 2.26014 112.21 4.41014 112.22C16.2601 112.28 28.1101 112.27 39.9601 112.23C44.0401 111.27 49.2901 135.49 52.1101 140.32C55.4001 130.84 58.9501 122.6 61.6201 113.17C61.8501 112.02 62.9601 112.25 63.7901 112.25C109.78 114.56 96.8501 100.73 110.7 141.16C113.78 135.68 118.57 110.5 124.01 112.22C166.41 114.34 163.64 102.7 153.71 133.96ZM81.5001 156.71C89.1301 174.13 93.7801 193.08 100.78 210.97C102.74 214.34 113.8 211.6 117.89 212.45C118.87 212.45 120.21 212.68 120.32 211.37C126.26 193.02 132.6 174.78 139.21 156.58C142.77 145.03 147.33 133.81 151.04 122.29C151.86 119.87 151.21 118.83 148.37 118.92C142.51 120.35 125.15 115.81 123.85 122.32C120.92 133.26 116.07 143.69 112.43 154.46C112.82 157.37 109.61 157.07 108.97 154.81C104.97 143.57 100.75 132.44 97.3301 120.99C96.6601 118.92 95.4501 118.24 93.2301 118.28C55.2101 118.56 70.8601 113.38 54.0101 154.39C53.6001 158.13 51.0001 157.52 50.2901 154.3C46.2401 142.87 41.0601 131.77 38.0301 120.05C37.3201 116.28 16.1001 119.31 11.1501 118.38C18.4901 141.02 26.6801 163.96 34.3401 186.73C44.6101 211.69 35.0401 212.44 59.2001 211.74C62.5901 212.32 63.5601 201.56 65.5601 198.87C71.7301 185.05 74.8501 170.31 81.5001 156.71Z" fill="#FFD764"/>
<path d="M366.25 0.330078C386.21 0.420078 406.17 0.390078 426.12 0.670078C440.53 0.910078 455.77 0.670077 465.91 12.9401C480.62 28.1501 474.88 52.4901 458.71 63.9601C455.53 65.7701 456.77 68.0801 460.13 67.3401C523.6 70.2301 510.51 54.5101 513.51 102.75C513.76 105.38 513.31 106.42 510.27 106.4C489.19 106.25 468.11 106.3 447.03 106.34C430.58 104.55 422.12 89.6601 409.66 79.7701C409.66 87.9201 409.53 95.3201 409.73 102.71C409.81 105.58 409.11 106.45 406.09 106.4C392.77 105.99 379.39 106.76 366.1 106.04C366.31 70.8001 366.16 35.5601 366.25 0.330078ZM403.24 65.0401C413.39 75.3901 424.04 84.5901 434.64 94.4701C438.57 98.0301 443.73 100.44 450.09 100.26C468.03 99.7501 485.99 100.21 503.95 100.3C505.51 100.31 506.88 100.51 506.77 98.1101C506.46 90.7701 506.34 83.4201 506.14 76.0801C506.11 74.9701 506.24 74.0901 504.44 74.0701C490.61 73.9401 476.78 73.3701 462.95 73.5601C457.22 73.6401 452.88 72.2901 449.21 67.8201C446.38 64.3701 446.23 63.6201 450.12 61.5001C463.94 55.7101 473.12 38.8001 466.43 25.0001C461.83 13.9001 452.56 7.95008 439.9 7.53008C418.83 6.83008 397.76 7.13008 376.69 6.87008C373.52 6.83008 372.84 7.69008 372.85 10.7601C372.21 40.5501 374.46 70.7401 372.06 100.3C415.65 99.7701 400.64 107.19 403.24 65.0401Z" fill="#FFD764"/>
<path d="M242.57 135.64C250.7 161.89 260.48 187.48 269.49 213.46C271.47 217.84 271.12 218.29 266.51 218.31C255.66 218.36 244.81 218.26 233.98 218.57C231.01 218.65 229.71 217.35 229.44 215.02C229.07 211.78 226.9 209.12 226.83 205.83C226.79 204.23 225.53 204.3 224.38 204.29C213.04 204.22 201.69 204.19 190.35 204.05C185.76 204.17 186.81 211.31 185.05 214.52C184.46 217.24 183.23 218.03 180.3 217.97C168.26 217.71 156.22 217.86 143.62 217.86C157.4 182.36 167.36 147.04 180.5 111.54C197.2 111.53 213.9 111.57 230.6 111.46C233.25 111.3 234.88 112.6 234.55 115.27C236.02 117.52 236.73 121.41 238.63 122.86C239.42 127.28 240.12 131.73 242.57 135.64ZM262.34 211.71C250.6 182.52 242.01 152.86 231.28 123.37C230.56 121.43 230.71 118.3 227.38 118.29C213.79 118.25 200.2 118.29 186.61 118.26C185.3 118.26 184.68 118.67 184.26 120.02C176.68 143.32 168.31 166.35 160.36 189.52C149.96 219.13 149.24 209.25 177.89 211.18C178.78 211.19 179.75 211.1 179.71 209.86C179.6 206.55 182.27 204.02 182.14 200.6C182.08 199.17 182.83 197.37 185.34 197.39C199.8 197.52 214.26 197.49 228.73 197.49C230.32 197.49 231.13 197.96 231.54 199.68C233.28 203.3 232.76 211.13 237.47 211.79C245.56 211.62 253.66 211.71 262.34 211.71Z" fill="#FFD764"/>
<path d="M237.05 85.9698C237.62 81.0998 240.89 76.8998 241.13 71.8798C243.56 67.4398 244.68 61.8998 246.74 57.1098C248.97 56.5198 247.2 54.0498 247.9 52.4498C248.86 52.3098 249.4 52.1598 249.17 50.9398C253.85 34.8598 261.03 19.4698 265.25 3.1498C265.74 1.2998 266.39 0.169802 268.85 0.199802C284.94 0.369802 301.03 0.309802 317.12 0.289802C318.96 0.289802 320.13 0.329802 320.89 2.6798C324.07 12.4698 327.85 22.0698 331.02 31.8698C339.28 57.1998 348.47 82.2498 356.84 107.4C350.97 106.23 313.93 110.21 315.66 104.1C314.49 100.73 314.33 93.0998 309.99 93.0198C299.02 93.0198 288.05 92.9898 277.08 92.8698C275.16 92.8498 274.46 93.3198 273.94 95.3898C273.15 98.5498 271.71 101.56 270.99 104.78C270.55 106.74 269.01 106.29 267.71 106.3C258.36 106.35 249.02 106.39 239.67 106.43C236.79 105.55 227.08 108.71 231.1 102.79C231.51 102.16 231.31 101.14 231.39 100.3C233.75 96.0298 234.97 90.6498 237.05 85.9698ZM239.05 100.29C246.91 100.29 254.39 100.12 261.86 100.38C267.67 100.98 267.06 93.5098 268.83 89.6698C269.43 87.3498 270.66 86.0998 273.58 86.1698C287.29 86.5198 301.01 86.5498 314.73 86.6798C316.23 86.6898 317.4 86.4598 317.79 88.7498C319.16 92.1998 319.28 100.12 323.7 100.61C331.06 100.53 338.42 100.62 345.77 100.85C348.34 100.93 347.89 99.9998 347.27 98.2898C336.72 68.8098 326.78 39.1098 316.46 9.5498C316.67 4.0298 282.21 8.3498 275.61 6.8098C271.4 6.6898 269.97 8.3598 268.97 11.9798C266.92 19.4398 263.85 26.5698 261.75 34.0398C253.57 56.0198 245.99 77.7398 239.05 100.29Z" fill="#FFD764"/>
<path d="M325.04 107.29C335.65 107.32 346.25 107.36 356.84 107.41C346.22 107.95 335.63 108.21 325.04 107.29Z" fill="#030202"/>
<path d="M6.96021 77.2197C7.96021 83.1397 7.96021 89.0697 6.96021 94.9897C6.96021 89.0597 6.96021 83.1397 6.96021 77.2197Z" fill="#030202"/>
<path d="M6.98 96.5703C8.3 97.4003 8.54999 98.8603 9.06999 100.16C5.36999 100.7 7.24 98.0203 6.98 96.5703Z" fill="#030202"/>
<path d="M7.57015 74.1303C7.37015 74.3703 7.17014 74.6003 6.97014 74.8403C6.91014 74.3803 6.94015 74.0003 7.57015 74.1303Z" fill="#030202"/>
<path d="M249.2 51.68C249.03 51.45 248.87 51.23 248.71 51C248.87 50.98 249.02 50.97 249.18 50.96C249.18 51.2 249.19 51.44 249.2 51.68Z" fill="#010101"/>
<path d="M333.19 160.92C329.11 159.87 316.95 163.82 317.42 157.54C318.72 153.46 314.66 136.57 320.56 138.14C331.6 139.97 351.12 133.26 356.41 145.94C359.46 161.42 343.89 161.68 333.19 160.92ZM323.55 148.9C323.53 154.84 323.53 154.85 328.82 154.85C334.93 154.06 341.63 156.17 347.31 154.03C352.3 152.76 351.18 144.78 345.87 145.17C341.53 146.35 320.02 141.16 323.55 148.9Z" fill="#FFD764"/>
<path d="M417.07 49.1396C395.26 49.9496 404.41 48.8296 402.46 28.3596C401.01 22.5996 429.71 26.8796 433.88 27.1296C439.31 28.0096 442.74 33.7496 441.3 39.9496C439.47 51.5396 425.9 48.7096 417.07 48.9496C417.07 49.0096 417.07 49.0696 417.07 49.1396ZM421.27 42.5896C421.27 42.5496 421.27 42.4996 421.27 42.4596C425.74 41.5296 434.76 45.2196 434.99 38.3996C435.17 35.5496 434.36 33.3396 430.88 32.9896C424.05 32.6696 416.32 31.5696 409.73 32.7196C408 33.6296 409.33 36.3996 408.96 38.3096C406.03 45.4896 417.49 41.6796 421.27 42.5896Z" fill="#FFD764"/>
<path d="M192.08 177.27C195.68 163.45 200.76 150.1 206.15 136.97C209.85 129.69 213.33 150.81 215.01 153.1C217.91 160.57 219.53 168.38 222.99 175.56C225.95 179.3 195.49 176.41 192.08 177.27ZM214.11 170.57C211.95 164.06 209.93 157.97 207.74 151.37C201.54 171.2 193.4 171.19 214.11 170.57Z" fill="#FFD764"/>
<path d="M277.88 66.5605C281.82 53.0405 286.86 40.8405 291.35 27.7205C291.96 26.1405 292.28 23.3505 294.29 23.5405C296.01 23.7005 296.1 26.3205 296.66 28.0705C298.99 35.2705 301.8 42.3105 303.96 49.5505C304.99 53.0005 307.33 56.1605 306.66 60.1205C307.1 61.5205 310.25 63.3105 309.26 65.4105C308.82 66.6405 307.51 66.5705 306.39 66.5705C297.07 66.5605 287.74 66.5605 277.88 66.5605ZM294.08 39.7605C291.61 44.6905 290.5 49.5705 288.57 54.1405C284.34 61.5805 290.78 59.5905 296.3 59.9105C301.04 59.9105 301.03 59.9105 299.17 55.5205C297.83 50.2405 295.89 45.4205 294.08 39.7605Z" fill="#FFD764"/>
</g>
<defs>
<clipPath id="clip0_461_141">
<rect width="513.56" height="219.18" fill="white"/>
</clipPath>
</defs>
</svg>
